#!OML:ASF H:\Dans Jumps\Project 1\Capture day 1\Session 1\subject.ASF
:FULLY-SPECIFIED
:DEGREES
150
root 0.242894 15.0892 -16.7666 23.4724 -1.16047 -1.76269
lowerback 24.0852 0.196754 0.0991957
upperback 11.519 0.320386 1.98101
thorax -0.749686 0.0870168 1.9969
lowerneck -15.1373 1.02997 -0.257859
upperneck 9.555 1.80144 -2.78805
head 5.37341 0.662505 -0.675423
rclavicle -1.59028e-015 1.32192e-014
rhumerus -31.6272 -7.70597 -76.9805
rradius 32.0686
rwrist 21.4691
rhand -18.9964 -25.4651
rfingers 7.12502
rthumb 7.30866 -55.3188
lclavicle -1.59028e-015 1.32192e-014
lhumerus -31.5077 -8.28545 89.8523
lradius 25.7643
lwrist 22.5866
lhand -30.2884 -5.52342
lfingers 7.12502
lthumb -3.59599 24.426
rfemur -70.468 -3.1306 21.0252
rtibia 69.3502
rfoot -21.2646 -2.54507
rtoes 2.80906
lfemur -70.3906 8.40035 -23.1781
ltibia 69.0614
lfoot -20.1327 6.85013
ltoes 0.205415
151
root 0.241373 15.0515 -16.7809 23.5422 -1.12437 -1.74474
lowerback 24.2339 0.197869 0.101327
upperback 11.5606 0.32374 1.99245
thorax -0.775162 0.088172 2.00788
lowerneck -15.1506 1.0323 -0.25059
upperneck 9.39001 1.80307 -2.82124
head 5.32417 0.663225 -0.686963
rclavicle -5.36719e-015 -8.74653e-015
rhumerus -31.6264 -7.63954 -76.996
rradius 32.1188
rwrist 21.3911
rhand -19.0025 -25.463
rfingers 7.12502
rthumb 7.30269 -55.317
lclavicle -5.36719e-015 -8.74653e-015
lhumerus -31.4711 -8.44255 89.9572
lradius 25.8919
lwrist 22.7037
lhand -30.3073 -5.54459
lfingers 7.12502
lthumb -3.61425 24.4045
rfemur -70.8863 -3.14012 21.0166
rtibia 69.8087
rfoot -21.3587 -2.63028
rtoes 2.67505
lfemur -70.8094 8.36235 -23.2157
ltibia 69.5017
lfoot -20.2147 6.90102
ltoes 0.15451
152
root 0.239809 15.014 -16.7949 23.6172 -1.09253 -1.72569
lowerback 24.3678 0.200372 0.100123
upperback 11.6022 0.328005 2.00424
thorax -0.793519 0.0896073 2.02085
lowerneck -15.1596 1.03569 -0.242751
upperneck 9.22863 1.80658 -2.859
head 5.27549 0.664558 -0.699868
rclavicle -7.95139e-015 -1.09332e-015
rhumerus -31.6195 -7.55561 -77.0208
rradius 32.1693
rwrist 21.3149
rhand -19.0057 -25.4799
rfingers 7.12502
rthumb 7.29969 -55.334
lclavicle -7.95139e-015 -1.09332e-015
lhumerus -31.4324 -8.59969 90.0651
lradius 26.0388
lwrist 22.8557
lhand -30.2889 -5.5169
lfingers 7.12502
lthumb -3.59642 24.4325
rfemur -71.3067 -3.14258 21.0034
rtibia 70.2585
rfoot -21.4456 -2.71777
rtoes 2.54654
lfemur -71.2302 8.32967 -23.2585
ltibia 69.9335
lfoot -20.2905 6.9473
ltoes 0.111224
153
root 0.238287 14.9773 -16.8086 23.6905 -1.0649 -1.70435
lowerback 24.4923 0.203487 0.0968474
upperback 11.6454 0.332407 2.01461
thorax -0.805373 0.0910353 2.03341
lowerneck -15.1622 1.0395 -0.235427
upperneck 9.0704 1.81072 -2.89718
head 5.22679 0.666194 -0.712781
rclavicle 3.97569e-016 6.4605e-015
rhumerus -31.604 -7.46119 -77.0556
rradius 32.2131
rwrist 21.251
rhand -19.0194 -25.4941
rfingers 7.12502
rthumb 7.28641 -55.3486
lclavicle 3.97569e-016 6.4605e-015
lhumerus -31.39 -8.75625 90.1742
lradius 26.2
lwrist 23.0404
lhand -30.2823 -5.48589
lfingers 7.12502
lthumb -3.59004 24.4636
rfemur -71.719 -3.13973 20.9856
rtibia 70.6967
rfoot -21.5257 -2.81424
rtoes 2.39225
lfemur -71.6417 8.30208 -23.3063
ltibia 70.3543
lfoot -20.3619 6.98928
ltoes 0.0678497
154
root 0.236844 14.9417 -16.8218 23.758 -1.04236 -1.67837
lowerback 24.612 0.206695 0.0889666
upperback 11.6905 0.335792 2.02315
thorax -0.81275 0.0918086 2.04688
lowerneck -15.1598 1.04413 -0.231291
upperneck 8.9231 1.81662 -2.93406
head 5.18074 0.668595 -0.724617
rclavicle 6.36111e-015 1.68967e-014
rhumerus -31.5774 -7.35918 -77.0992
rradius 32.2486
rwrist 21.201
rhand -19.0328 -25.5193
rfingers 7.12502
rthumb 7.27352 -55.3743
lclavicle 6.36111e-015 1.68967e-014
lhumerus -31.3431 -8.90004 90.2817
lradius 26.3717
lwrist 23.2485
lhand -30.2018 -5.35706
lfingers 7.12502
lthumb -3.51234 24.5938
rfemur -72.1157 -3.134 20.961
rtibia 71.1211
rfoot -21.6009 -2.91908
rtoes 2.20541
lfemur -72.035 8.27995 -23.3616
ltibia 70.7613
lfoot -20.4332 7.0282
ltoes 0.0241595
155
root 0.235433 14.9073 -16.8346 23.8164 -1.01799 -1.64848
lowerback 24.7332 0.207685 0.0821412
upperback 11.7371 0.336565 2.03043
thorax -0.819007 0.0913785 2.05902
lowerneck -15.1519 1.04951 -0.229464
upperneck 8.78772 1.82406 -2.97008
head 5.13755 0.671653 -0.73568
rclavicle 1.05356e-014 1.33186e-014
rhumerus -31.5401 -7.25776 -77.1484
rradius 32.274
rwrist 21.169
rhand -19.0484 -25.5287
rfingers 7.12502
rthumb 7.25846 -55.3842
lclavicle 1.05356e-014 1.33186e-014
lhumerus -31.2899 -9.0284 90.386
lradius 26.5496
lwrist 23.4682
lhand -30.1428 -5.23448
lfingers 7.12502
lthumb -3.45538 24.7173
rfemur -72.4922 -3.12967 20.9317
rtibia 71.5315
rfoot -21.6735 -3.03186
rtoes 1.99483
lfemur -72.4061 8.25648 -23.419
ltibia 71.1528
lfoot -20.5049 7.06275
ltoes -0.0233982
156
root 0.234083 14.8743 -16.8469 23.8651 -0.991567 -1.61352
lowerback 24.8569 0.205966 0.0744352
upperback 11.785 0.333777 2.03758
thorax -0.824627 0.0891716 2.07244
lowerneck -15.1436 1.05503 -0.234659
upperneck 8.67031 1.83293 -3.00099
head 5.09989 0.675315 -0.743869
rclavicle -1.19271e-015 -1.0635e-014
rhumerus -31.4926 -7.1531 -77.2011
rradius 32.2942
rwrist 21.149
rhand -19.0579 -25.5304
rfingers 7.12502
rthumb 7.24924 -55.3863
lclavicle -1.19271e-015 -1.0635e-014
lhumerus -31.2294 -9.13807 90.4874
lradius 26.7332
lwrist 23.6948
lhand -30.1423 -5.20249
lfingers 7.12502
lthumb -3.45484 24.7493
rfemur -72.8466 -3.12795 20.8957
rtibia 71.9282
rfoot -21.7442 -3.14742
rtoes 1.77937
lfemur -72.7535 8.23038 -23.4798
ltibia 71.5276
lfoot -20.5767 7.09679
ltoes -0.0816917
